<svg aria-hidden="true" style="position: absolute; width: 0; height: 0; overflow: hidden;" version="1.1" xmlns="http://www.w3.org/2000/svg" xmlns:xlink="http://www.w3.org/1999/xlink">
<defs>
<symbol id="icon-shortkey" viewBox="0 0 51 32">
<path fill="none" stroke="#e4e4e7" style="stroke: var(--color1, #e4e4e7)" stroke-linejoin="miter" stroke-linecap="butt" stroke-miterlimit="4" stroke-width="1.6" d="M0.8 6.4c0-3.093 2.507-5.6 5.6-5.6h38.4c3.093 0 5.6 2.507 5.6 5.6v19.2c0 3.093-2.507 5.6-5.6 5.6h-38.4c-3.093 0-5.6-2.507-5.6-5.6v-19.2z"></path>
<path fill="#70707b" style="fill: var(--color2, #70707b)" d="M14.877 22.714c-0.541 0-1.036-0.132-1.486-0.395-0.45-0.268-0.809-0.627-1.077-1.077-0.264-0.45-0.395-0.945-0.395-1.486 0-0.545 0.132-1.043 0.395-1.493 0.268-0.45 0.627-0.809 1.077-1.077s0.945-0.402 1.486-0.402h1.582v-2.741h-1.582c-0.541 0-1.036-0.132-1.486-0.395-0.45-0.268-0.809-0.625-1.077-1.070-0.264-0.45-0.395-0.948-0.395-1.493s0.132-1.041 0.395-1.486c0.268-0.45 0.627-0.807 1.077-1.070 0.45-0.268 0.945-0.402 1.486-0.402 0.545 0 1.043 0.134 1.493 0.402 0.45 0.264 0.809 0.62 1.077 1.070 0.268 0.445 0.402 0.941 0.402 1.486v1.568h2.741v-1.568c0-0.545 0.132-1.041 0.396-1.486 0.268-0.45 0.625-0.807 1.070-1.070 0.45-0.268 0.948-0.402 1.493-0.402s1.041 0.134 1.486 0.402c0.45 0.264 0.807 0.62 1.071 1.070 0.268 0.445 0.402 0.941 0.402 1.486s-0.134 1.043-0.402 1.493c-0.264 0.445-0.62 0.802-1.071 1.070-0.445 0.264-0.941 0.395-1.486 0.395h-1.568v2.741h1.568c0.545 0 1.041 0.134 1.486 0.402 0.45 0.268 0.807 0.627 1.071 1.077 0.268 0.45 0.402 0.948 0.402 1.493 0 0.541-0.134 1.036-0.402 1.486-0.264 0.45-0.62 0.809-1.071 1.077-0.445 0.264-0.941 0.395-1.486 0.395s-1.043-0.132-1.493-0.395c-0.445-0.268-0.802-0.627-1.070-1.077-0.264-0.45-0.396-0.945-0.396-1.486v-1.582h-2.741v1.582c0 0.541-0.134 1.036-0.402 1.486s-0.627 0.809-1.077 1.077c-0.45 0.264-0.948 0.395-1.493 0.395zM14.877 21.323c0.291 0 0.555-0.070 0.791-0.211 0.241-0.141 0.432-0.33 0.573-0.566 0.145-0.241 0.218-0.504 0.218-0.791v-1.582h-1.582c-0.286 0-0.55 0.073-0.791 0.218-0.236 0.141-0.425 0.332-0.566 0.573-0.141 0.236-0.211 0.5-0.211 0.791 0 0.286 0.070 0.55 0.211 0.791 0.141 0.236 0.33 0.425 0.566 0.566 0.241 0.141 0.505 0.211 0.791 0.211zM14.877 12.65h1.582v-1.568c0-0.291-0.073-0.555-0.218-0.791-0.141-0.236-0.332-0.425-0.573-0.566-0.236-0.141-0.5-0.211-0.791-0.211-0.286 0-0.55 0.070-0.791 0.211-0.236 0.141-0.425 0.33-0.566 0.566s-0.211 0.5-0.211 0.791c0 0.291 0.070 0.557 0.211 0.798 0.141 0.236 0.33 0.425 0.566 0.566 0.241 0.136 0.505 0.205 0.791 0.205zM21.982 12.65h1.568c0.291 0 0.554-0.068 0.791-0.205 0.236-0.141 0.425-0.33 0.566-0.566 0.141-0.241 0.211-0.507 0.211-0.798s-0.071-0.555-0.211-0.791c-0.141-0.236-0.33-0.425-0.566-0.566s-0.5-0.211-0.791-0.211c-0.291 0-0.557 0.070-0.798 0.211-0.236 0.141-0.425 0.33-0.566 0.566-0.136 0.236-0.205 0.5-0.205 0.791v1.568zM23.55 21.323c0.291 0 0.554-0.070 0.791-0.211s0.425-0.33 0.566-0.566c0.141-0.241 0.211-0.504 0.211-0.791 0-0.291-0.071-0.555-0.211-0.791-0.141-0.241-0.33-0.432-0.566-0.573-0.236-0.145-0.5-0.218-0.791-0.218h-1.568v1.582c0 0.286 0.068 0.55 0.205 0.791 0.141 0.236 0.329 0.425 0.566 0.566 0.241 0.141 0.507 0.211 0.798 0.211zM17.85 16.782h2.741v-2.741h-2.741v2.741zM30.51 22.4v-13.964h1.691v6.927h0.164l6.273-6.927h2.209l-5.864 6.3 5.864 7.664h-2.045l-4.855-6.491-1.745 1.964v4.527h-1.691z"></path>
</symbol>
<symbol id="icon-question" viewBox="0 0 32 32">
<path fill="none" stroke="#a0a0ab" style="stroke: var(--color3, #a0a0ab)" stroke-linejoin="round" stroke-linecap="round" stroke-miterlimit="4" stroke-width="2.6" d="M12.12 12c0.313-0.891 0.932-1.643 1.747-2.121s1.772-0.654 2.703-0.494c0.931 0.16 1.776 0.644 2.384 1.366s0.941 1.637 0.94 2.582c0 2.667-4 4-4 4M16 22.667h0.013M29.334 16c0 7.364-5.969 13.333-13.333 13.333s-13.333-5.97-13.333-13.333c0-7.364 5.97-13.333 13.333-13.333s13.333 5.97 13.333 13.333z"></path>
</symbol>
<symbol id="icon-search" viewBox="0 0 32 32">
<path fill="none" stroke="#a0a0ab" style="stroke: var(--color3, #a0a0ab)" stroke-linejoin="round" stroke-linecap="round" stroke-miterlimit="4" stroke-width="3.4286" d="M29.714 29.714l-5.333-5.333M28.19 15.238c0 7.153-5.799 12.952-12.952 12.952s-12.952-5.799-12.952-12.952c0-7.153 5.799-12.952 12.952-12.952s12.952 5.799 12.952 12.952z"></path>
</symbol>
</defs>
</svg>
